# xmcd
#
# Track frame offsets: 
#        150
#        6980
#        19735
#        29987
#        48302
#        60102
#        72120
#        87840
#        100987
#        123847
#        140880
#        152287
#        165690
#        176547
#        187035
#        197460
#        209020
#        219657
#        231545
#        247990
#        256502
#        276635
#        295180
#        329532
#
# Disc length: 4441 seconds
#
# Revision: 0
# Processed by: cddbd v1.5.1PL2 Copyright (c) Steve Scherf et al.
# Submitted via: ExactAudioCopy v0.95b4
#
DISCID=64115718
DTITLE=Johnny Cash - Rockabilly Reunion
DYEAR=1981
DGENRE=Country
TTITLE0=Intro
TTITLE1=Ring Of Fire
TTITLE2=A Thing Called Love
TTITLE3=Sunday Morning Coming Down
TTITLE4=Folsom Prison Blues
TTITLE5=San Quentin
TTITLE6=The Last Time
TTITLE7=Without Love
TTITLE8=Doin' My Time 
TTITLE9=The Baron
TTITLE10=Far Side Banks Of Jordan
TTITLE11=I Walk The Line
TTITLE12=Give My Love To Rose
TTITLE13=The Long Black Veil
TTITLE14=Hey Porter
TTITLE15=I Still Miss Someone
TTITLE16=Big River
TTITLE17=Lay Me Down In Dixie
TTITLE18=Ghost Riders In The Sky
TTITLE19=Casey Jones
TTITLE20=Orange Blossom Special
TTITLE21=Medley
TTITLE22=Medley
TTITLE23=Rock And Roll Ruby
EXTD=
EXTT0=
EXTT1=
EXTT2=
EXTT3=
EXTT4=
EXTT5=
EXTT6=
EXTT7=
EXTT8=
EXTT9=
EXTT10=
EXTT11=
EXTT12=
EXTT13=
EXTT14=
EXTT15=
EXTT16=
EXTT17=
EXTT18=
EXTT19=
EXTT20=
EXTT21=
EXTT22=
EXTT23=
PLAYORDER=
